<?xml version="1.0" encoding="UTF-8" standalone="no"?>
<!DOCTYPE svg PUBLIC "-//W3C//DTD SVG 1.1//EN" "http://www.w3.org/Graphics/SVG/1.1/DTD/svg11.dtd">
<svg width="100%" height="100%" viewBox="0 0 2126 696" version="1.1" xmlns="http://www.w3.org/2000/svg" xmlns:xlink="http://www.w3.org/1999/xlink" xml:space="preserve" xmlns:serif="http://www.serif.com/" style="fill-rule:evenodd;clip-rule:evenodd;stroke-linejoin:round;stroke-miterlimit:2;">
    <g transform="matrix(1,0,0,1,-3.27963,-3474.56)">
        <g transform="matrix(4.16667,0,0,4.16667,0,0)">
            <g transform="matrix(0.977686,0,0,0.977686,0.787112,11.3241)">
                <path d="M521.708,988.936C521.708,1001.67 511.386,1012 498.652,1012L23.062,1012C10.327,1012 0,1001.67 0,988.936L0,864.405C0,851.671 10.327,841.344 23.062,841.344L498.652,841.344C511.386,841.344 521.708,851.671 521.708,864.405L521.708,988.936Z" style="fill:rgb(35,31,32);fill-rule:nonzero;"/>
            </g>
        </g>
        <g transform="matrix(4.16667,0,0,4.16667,0,0)">
            <g transform="matrix(0.977686,0,0,0.977686,0.787112,11.3241)">
                <path d="M136.047,954.147C133.285,960.269 131.963,963.001 128.408,968.411C123.445,975.966 116.453,985.372 107.789,985.451C100.088,985.522 98.111,980.439 87.662,980.497C77.213,980.554 75.03,985.54 67.329,985.47C58.664,985.39 52.038,976.895 47.076,969.343C33.201,948.222 31.751,923.435 40.307,910.258C46.389,900.893 55.98,895.411 65.002,895.411C74.186,895.411 79.959,900.448 87.552,900.448C94.918,900.448 99.408,895.403 110.025,895.403C118.051,895.403 126.555,899.772 132.615,907.331C112.762,918.21 115.986,946.567 136.047,954.147Z" style="fill:white;fill-rule:nonzero;"/>
            </g>
        </g>
        <g transform="matrix(4.16667,0,0,4.16667,0,0)">
            <g transform="matrix(0.977686,0,0,0.977686,0.787112,11.3241)">
                <path d="M101.971,886.966C105.826,882.015 108.758,875.02 107.695,867.874C101.395,868.308 94.021,872.317 89.716,877.544C85.81,882.29 82.585,889.328 83.841,896.167C90.72,896.38 97.837,892.271 101.971,886.966Z" style="fill:white;fill-rule:nonzero;"/>
            </g>
        </g>
        <g transform="matrix(4.16667,0,0,4.16667,0,0)">
            <g transform="matrix(0.977686,0,0,0.977686,0.787112,11.3241)">
                <path d="M183.032,919.558C183.703,922.169 184.427,924.881 185.358,927.811L190.714,943.323L175.47,943.323L180.751,927.71C181.556,925.179 182.32,922.444 183.032,919.558ZM178.316,909.938L158.441,968.442L167.542,968.442L173.476,950.478L192.72,950.478L198.822,968.442L208.175,968.442L188.214,909.938L178.316,909.938Z" style="fill:white;fill-rule:nonzero;"/>
            </g>
        </g>
        <g transform="matrix(4.16667,0,0,4.16667,0,0)">
            <g transform="matrix(0.977686,0,0,0.977686,0.787112,11.3241)">
                <path d="M231.689,932.433C239.58,932.433 243.111,939.742 243.111,946.985C243.111,956.327 238.605,962.131 231.353,962.131C226.402,962.131 222.119,958.761 220.925,953.917C220.72,953.167 220.611,952.173 220.611,951.052L220.611,943.934C220.611,943.289 220.755,942.507 220.892,941.749C220.936,941.507 220.984,941.265 221.019,941.03C222.339,935.966 226.721,932.433 231.689,932.433ZM233.894,925.104C227.865,925.104 223.037,927.432 219.822,931.855L219.469,926.036L211.373,926.036L211.421,926.78C211.66,930.405 211.759,934.395 211.759,940.124L211.759,985.218L220.611,985.218L220.611,964.174C223.357,967.46 227.742,969.373 232.71,969.373C237.884,969.373 242.65,967.347 246.123,963.671C250,959.573 252.045,953.683 252.045,946.645C252.045,940.427 250.269,935.05 246.903,931.1C243.606,927.233 238.988,925.104 233.894,925.104Z" style="fill:white;fill-rule:nonzero;"/>
            </g>
        </g>
        <g transform="matrix(4.16667,0,0,4.16667,0,0)">
            <g transform="matrix(0.977686,0,0,0.977686,0.787112,11.3241)">
                <path d="M277.271,932.433C285.158,932.433 288.69,939.742 288.69,946.985C288.69,956.327 284.181,962.131 276.933,962.131C271.984,962.131 267.697,958.761 266.505,953.917C266.3,953.167 266.193,952.173 266.193,951.052L266.193,943.934C266.193,943.285 266.335,942.5 266.475,941.741C266.519,941.503 266.563,941.265 266.603,941.03C267.918,935.966 272.302,932.433 277.271,932.433ZM279.474,925.104C273.447,925.104 268.619,927.432 265.401,931.855L265.048,926.036L256.954,926.036L257,926.78C257.239,930.409 257.341,934.395 257.341,940.124L257.341,985.218L266.193,985.218L266.193,964.174C268.939,967.46 273.321,969.373 278.289,969.373C283.462,969.373 288.229,967.347 291.708,963.671C295.579,959.573 297.626,953.683 297.626,946.645C297.626,940.427 295.847,935.05 292.481,931.1C289.186,927.233 284.568,925.104 279.474,925.104Z" style="fill:white;fill-rule:nonzero;"/>
            </g>
        </g>
        <g transform="matrix(4.16667,0,0,4.16667,0,0)">
            <g transform="matrix(0.977686,0,0,0.977686,0.787112,11.3241)">
                <path d="M336.577,934.728C328.316,931.528 325.669,929.013 325.669,924.364C325.669,920.45 328.779,916.503 335.73,916.503C341.464,916.503 345.132,918.497 346.121,919.111L346.871,919.574L349.369,912.187L348.875,911.898C347.392,911.029 343.166,909.007 335.985,909.007C324.697,909.007 316.813,915.671 316.813,925.209C316.813,932.901 321.75,938.278 332.349,942.132C339.861,944.939 342.657,947.815 342.657,952.746C342.657,958.327 338.343,961.79 331.406,961.79C326.887,961.79 322.237,960.473 318.648,958.173L317.88,957.681L315.504,965.238L315.941,965.527C319.283,967.759 325.572,969.373 330.9,969.373C346.113,969.373 351.507,960.097 351.507,952.153C351.507,943.964 347.183,938.913 336.577,934.728Z" style="fill:white;fill-rule:nonzero;"/>
            </g>
        </g>
        <g transform="matrix(4.16667,0,0,4.16667,0,0)">
            <g transform="matrix(0.977686,0,0,0.977686,0.787112,11.3241)">
                <path d="M367.441,915.957L358.759,918.683L358.759,926.036L352.404,926.036L352.404,933.11L358.759,933.11L358.759,954.78C358.759,960.019 359.761,963.69 361.824,966.011C363.802,968.179 366.843,969.373 370.388,969.373C373.734,969.373 376.111,968.712 377.23,968.316L377.726,968.141L377.302,961.054L376.453,961.314C375.333,961.658 374.185,961.79 372.335,961.79C368.906,961.79 367.441,959.62 367.441,954.525L367.441,933.11L378.119,933.11L378.119,926.036L367.441,926.036L367.441,915.957Z" style="fill:white;fill-rule:nonzero;"/>
            </g>
        </g>
        <g transform="matrix(4.16667,0,0,4.16667,0,0)">
            <g transform="matrix(0.977686,0,0,0.977686,0.787112,11.3241)">
                <path d="M399.798,932.093C407.761,932.093 411.386,939.855 411.386,947.071C411.386,955.944 406.439,962.385 399.63,962.385L399.544,962.385C392.832,962.385 387.958,956.052 387.958,947.327C387.958,939.745 391.621,932.093 399.798,932.093ZM400.054,925.104C387.669,925.104 379.021,934.349 379.021,947.577C379.021,960.411 387.39,969.373 399.376,969.373L399.458,969.373C409.591,969.373 420.492,962.314 420.492,946.815C420.492,940.514 418.542,935.101 414.851,931.159C411.138,927.2 406.019,925.104 400.054,925.104Z" style="fill:white;fill-rule:nonzero;"/>
            </g>
        </g>
        <g transform="matrix(4.16667,0,0,4.16667,0,0)">
            <g transform="matrix(0.977686,0,0,0.977686,0.787112,11.3241)">
                <path d="M447.603,925.516L447.072,925.381C446.292,925.186 445.656,925.104 444.871,925.104C440.24,925.104 436.085,927.831 433.773,932.23L433.513,926.036L425.57,926.036L425.621,926.78C425.857,930.284 425.955,934.218 425.955,939.526L425.873,968.442L434.724,968.442L434.724,945.884C434.724,944.655 434.808,943.494 434.968,942.452C435.966,937.034 439.623,933.532 444.281,933.532C445.187,933.532 445.9,933.606 446.656,933.681L447.603,933.778L447.603,925.516Z" style="fill:white;fill-rule:nonzero;"/>
            </g>
        </g>
        <g transform="matrix(4.16667,0,0,4.16667,0,0)">
            <g transform="matrix(0.977686,0,0,0.977686,0.787112,11.3241)">
                <path d="M466.914,931.755C469.609,931.755 471.796,932.589 473.412,934.233C475.958,936.825 476.404,940.642 476.46,942.474L456.273,942.474C457.095,937.362 460.292,931.755 466.914,931.755ZM467.503,925.02C455.72,925.02 447.49,934.436 447.49,947.917C447.49,960.898 455.677,969.289 468.351,969.289C475.015,969.289 479.652,967.826 482.365,966.601L482.898,966.36L481.197,959.765L480.458,960.062C478.046,961.044 474.839,962.046 469.369,962.046C465.523,962.046 456.654,960.777 456.111,949.212L484.681,949.298L484.796,948.732C484.976,947.833 485.062,946.621 485.062,945.038C485.062,935.804 480.464,925.02 467.503,925.02Z" style="fill:white;fill-rule:nonzero;"/>
            </g>
        </g>
        <g transform="matrix(4.16667,0,0,4.16667,0,0)">
            <g transform="matrix(0.977686,0,0,0.977686,0.787112,11.3241)">
                <path d="M162.458,894.5C163.462,894.664 164.923,894.664 166.476,894.664C174.966,894.704 179.576,890.392 179.576,882.915C179.622,876.301 175.513,872.233 167.115,872.233C165.062,872.233 163.508,872.399 162.458,872.603L162.458,894.5ZM158.441,869.974C160.907,869.645 163.783,869.399 166.931,869.399C172.638,869.399 176.701,870.55 179.394,872.81C182.178,875.068 183.777,878.313 183.777,882.792C183.777,887.311 182.178,891.007 179.349,893.555C176.427,896.143 171.679,897.54 165.7,897.54C162.824,897.54 160.496,897.458 158.441,897.211L158.441,869.974Z" style="fill:white;fill-rule:nonzero;"/>
            </g>
        </g>
        <g transform="matrix(4.16667,0,0,4.16667,0,0)">
            <g transform="matrix(0.977686,0,0,0.977686,0.787112,11.3241)">
                <path d="M198.15,895.033C201.984,895.033 204.861,891.788 204.861,887.269C204.861,883.9 202.989,879.669 198.242,879.669C193.539,879.669 191.485,883.613 191.485,887.393C191.485,891.747 194.224,895.033 198.104,895.033L198.15,895.033ZM198.013,897.745C192.078,897.745 187.423,893.802 187.423,887.517C187.423,880.861 192.307,876.958 198.377,876.958C204.724,876.958 209.013,881.106 209.013,887.146C209.013,894.541 203.308,897.745 198.06,897.745L198.013,897.745Z" style="fill:white;fill-rule:nonzero;"/>
            </g>
        </g>
        <g transform="matrix(4.16667,0,0,4.16667,0,0)">
            <g transform="matrix(0.977686,0,0,0.977686,0.787112,11.3241)">
                <path d="M215.369,877.409L218.335,887.476C218.928,889.693 219.523,891.788 219.933,893.843L220.07,893.843C220.572,891.829 221.302,889.693 222.033,887.517L225.639,877.409L229.018,877.409L232.442,887.351C233.262,889.693 233.902,891.829 234.404,893.843L234.541,893.843C234.906,891.829 235.5,889.734 236.23,887.393L239.378,877.409L243.351,877.409L236.23,897.293L232.578,897.293L229.201,887.804C228.425,885.544 227.785,883.572 227.236,881.23L227.146,881.23C226.598,883.613 225.914,885.708 225.136,887.845L221.577,897.293L217.925,897.293L211.259,877.409L215.369,877.409Z" style="fill:white;fill-rule:nonzero;"/>
            </g>
        </g>
        <g transform="matrix(4.16667,0,0,4.16667,0,0)">
            <g transform="matrix(0.977686,0,0,0.977686,0.787112,11.3241)">
                <path d="M247.371,882.792C247.371,880.696 247.325,879.054 247.187,877.409L250.749,877.409L250.976,880.656L251.068,880.656C252.164,878.807 254.719,876.958 258.371,876.958C261.428,876.958 266.176,878.601 266.176,885.421L266.176,897.293L262.162,897.293L262.162,885.831C262.162,882.627 260.834,879.917 257.047,879.917C254.446,879.917 252.39,881.601 251.662,883.613C251.479,884.065 251.387,884.722 251.387,885.298L251.387,897.293L247.371,897.293L247.371,882.792Z" style="fill:white;fill-rule:nonzero;"/>
            </g>
        </g>
        <g transform="matrix(4.16667,0,0,4.16667,0,0)">
            <g transform="matrix(0.977686,0,0,0.977686,0.787112,11.3241)">
                <rect x="272.705" y="868.126" width="4.017" height="29.167" style="fill:white;fill-rule:nonzero;"/>
            </g>
        </g>
        <g transform="matrix(4.16667,0,0,4.16667,0,0)">
            <g transform="matrix(0.977686,0,0,0.977686,0.787112,11.3241)">
                <path d="M292.515,895.033C296.35,895.033 299.227,891.788 299.227,887.269C299.227,883.9 297.355,879.669 292.609,879.669C287.906,879.669 285.851,883.613 285.851,887.393C285.851,891.747 288.59,895.033 292.471,895.033L292.515,895.033ZM292.38,897.745C286.447,897.745 281.791,893.802 281.791,887.517C281.791,880.861 286.672,876.958 292.746,876.958C299.089,876.958 303.38,881.106 303.38,887.146C303.38,894.541 297.674,897.745 292.425,897.745L292.38,897.745Z" style="fill:white;fill-rule:nonzero;"/>
            </g>
        </g>
        <g transform="matrix(4.16667,0,0,4.16667,0,0)">
            <g transform="matrix(0.977686,0,0,0.977686,0.787112,11.3241)">
                <path d="M320.091,887.146C315.708,887.064 310.733,887.763 310.733,891.624C310.733,894.007 312.467,895.075 314.476,895.075C317.397,895.075 319.269,893.432 319.907,891.747C320.046,891.378 320.091,890.966 320.091,890.597L320.091,887.146ZM324.015,892.528C324.015,894.253 324.107,895.936 324.335,897.293L320.728,897.293L320.363,894.788L320.228,894.788C319.041,896.349 316.62,897.745 313.472,897.745C309,897.745 306.716,894.911 306.716,892.034C306.716,887.228 311.462,884.599 319.998,884.64L319.998,884.229C319.998,882.587 319.498,879.588 314.978,879.629C312.876,879.629 310.733,880.161 309.181,881.106L308.267,878.684C310.093,877.657 312.786,876.958 315.572,876.958C322.373,876.958 324.015,881.106 324.015,885.093L324.015,892.528Z" style="fill:white;fill-rule:nonzero;"/>
            </g>
        </g>
        <g transform="matrix(4.16667,0,0,4.16667,0,0)">
            <g transform="matrix(0.977686,0,0,0.977686,0.787112,11.3241)">
                <path d="M345.517,885.503C345.517,885.01 345.472,884.435 345.333,883.942C344.742,881.683 342.55,879.793 339.538,879.793C335.383,879.793 332.917,883.079 332.917,887.435C332.917,891.501 335.156,894.827 339.446,894.827C342.14,894.827 344.605,893.185 345.333,890.515C345.472,890.022 345.517,889.528 345.517,888.954L345.517,885.503ZM349.533,868.126L349.533,892.157C349.533,893.924 349.582,895.936 349.716,897.293L346.111,897.293L345.929,893.843L345.837,893.843C344.605,896.061 341.957,897.745 338.351,897.745C333.009,897.745 328.855,893.679 328.855,887.639C328.809,880.983 333.421,876.958 338.76,876.958C342.186,876.958 344.468,878.397 345.427,879.957L345.517,879.957L345.517,868.126L349.533,868.126Z" style="fill:white;fill-rule:nonzero;"/>
            </g>
        </g>
        <g transform="matrix(4.16667,0,0,4.16667,0,0)">
            <g transform="matrix(0.977686,0,0,0.977686,0.787112,11.3241)">
                <path d="M375.007,895.033C378.841,895.033 381.716,891.788 381.716,887.269C381.716,883.9 379.847,879.669 375.099,879.669C370.396,879.669 368.343,883.613 368.343,887.393C368.343,891.747 371.082,895.033 374.96,895.033L375.007,895.033ZM374.869,897.745C368.935,897.745 364.279,893.802 364.279,887.517C364.279,880.861 369.166,876.958 375.234,876.958C381.582,876.958 385.871,881.106 385.871,887.146C385.871,894.541 380.164,897.745 374.917,897.745L374.869,897.745Z" style="fill:white;fill-rule:nonzero;"/>
            </g>
        </g>
        <g transform="matrix(4.16667,0,0,4.16667,0,0)">
            <g transform="matrix(0.977686,0,0,0.977686,0.787112,11.3241)">
                <path d="M390.941,882.792C390.941,880.696 390.894,879.054 390.757,877.409L394.318,877.409L394.548,880.656L394.638,880.656C395.734,878.807 398.289,876.958 401.941,876.958C405,876.958 409.748,878.601 409.748,885.421L409.748,897.293L405.73,897.293L405.73,885.831C405.73,882.627 404.408,879.917 400.617,879.917C398.017,879.917 395.96,881.601 395.23,883.613C395.048,884.065 394.957,884.722 394.957,885.298L394.957,897.293L390.941,897.293L390.941,882.792Z" style="fill:white;fill-rule:nonzero;"/>
            </g>
        </g>
        <g transform="matrix(4.16667,0,0,4.16667,0,0)">
            <g transform="matrix(0.977686,0,0,0.977686,0.787112,11.3241)">
                <path d="M430.792,872.645L430.792,877.409L436.542,877.409L436.542,880.161L430.792,880.161L430.792,890.885C430.792,893.349 431.57,894.746 433.806,894.746C434.9,894.746 435.541,894.664 436.134,894.5L436.316,897.252C435.541,897.498 434.308,897.745 432.755,897.745C430.884,897.745 429.376,897.17 428.417,896.226C427.322,895.116 426.867,893.349 426.867,891.007L426.867,880.161L423.443,880.161L423.443,877.409L426.867,877.409L426.867,873.754L430.792,872.645Z" style="fill:white;fill-rule:nonzero;"/>
            </g>
        </g>
        <g transform="matrix(4.16667,0,0,4.16667,0,0)">
            <g transform="matrix(0.977686,0,0,0.977686,0.787112,11.3241)">
                <path d="M441.064,868.126L445.08,868.126L445.08,880.532L445.173,880.532C445.81,879.505 446.814,878.561 448.05,877.985C449.236,877.329 450.648,876.958 452.158,876.958C455.123,876.958 459.871,878.601 459.871,885.462L459.871,897.293L455.855,897.293L455.855,885.873C455.855,882.627 454.531,879.957 450.742,879.957C448.14,879.957 446.132,881.601 445.355,883.572C445.126,884.065 445.08,884.599 445.08,885.298L445.08,897.293L441.064,897.293L441.064,868.126Z" style="fill:white;fill-rule:nonzero;"/>
            </g>
        </g>
        <g transform="matrix(4.16667,0,0,4.16667,0,0)">
            <g transform="matrix(0.977686,0,0,0.977686,0.787112,11.3241)">
                <path d="M480.416,885.38C480.458,883.12 479.365,879.505 474.89,879.505C470.781,879.505 469.046,882.874 468.728,885.38L480.416,885.38ZM468.681,887.968C468.775,892.856 472.199,894.87 476.214,894.87C479.089,894.87 480.871,894.417 482.333,893.883L483.064,896.43C481.646,897.005 479.181,897.704 475.667,897.704C468.91,897.704 464.802,893.636 464.802,887.681C464.802,881.642 468.775,876.917 475.208,876.917C482.423,876.917 484.292,882.627 484.292,886.284C484.292,887.023 484.25,887.599 484.158,888.009L468.681,887.968Z" style="fill:white;fill-rule:nonzero;"/>
            </g>
        </g>
    </g>
</svg>
