<svg xmlns="http://www.w3.org/2000/svg" width="1446" height="247" viewBox="0 0 1446 247">
  <path fill="#fafaf9" fill-rule="evenodd" d="M1329.34743,4.54747351e-13 L1340.8786,31.5359721 L1337.83893,31.5359721 L1347.78721,55.4906895 L1344.45397,55.4906895 L1346.352,59.959 L1353.28035,44.2287777 L1349.90894,44.2287777 L1358.32579,19 L1369.93629,44.2287777 L1366.87571,44.2287777 L1376.89244,63.3925516 L1373.53626,63.3925516 L1382.63771,80.4115927 L1364.75893,80.4115927 L1364.758,90.918 L1445,94.5406729 L1445,141.568 L1445.7582,141.568806 L1445.7582,295.068806 L0.258196721,295.068806 L0.258,146.26 L0,146.260054 L0,94.5406729 L46.0912903,80.2600541 L113.031,84.787 L114.490536,83.4999156 L124.407414,83.9986684 L124.802,85.583 L144.121,86.889 L143.497311,80.6421014 L148.424109,62.3124016 L137.806294,66.673233 L120.359606,54.6030962 L120.359606,22.1491434 L150.867264,13.5 L179.89977,27.5825947 L181.364356,52.2767134 L166.907894,62.3124016 L153.737659,62.3124016 L151.754967,77.7464339 L153.273,87.508 L179.632,89.29 L179.756761,86.1650895 L180.407469,80.4764889 L176.308083,80.3333352 L171.92509,76.8330093 L172.668231,68.62257 L181.868755,64.2467999 L191.263995,67.459694 L190.886453,78.2710883 L185.315558,82.1023797 L182.061372,80.5342445 L182.293365,87.2194805 L182.382,89.476 L197.514,90.499 L200.504398,89.0775811 L206.424,91.102 L257.273553,94.5406729 L312.306,91.882 L309.604236,89.7251692 L310.219249,82.9303229 L317.833476,79.3089959 L325.608847,81.9679428 L325.296399,90.9153035 L324.764,91.281 L521.501,81.78 L519.604236,80.2658647 L520.219249,73.4710184 L527.833476,69.8496914 L534.329,72.071 L538.977755,69.7206551 L546.08374,74.2588747 L547.544,80.522 L552.975668,80.2600541 L751.63,88.758 L751.706362,86.8324771 L752.08108,83.5566278 L749.720399,83.474191 L747.1964,81.458486 L747.624346,76.7304055 L752.922579,74.2105654 L756.831,75.547 L760.5671,67.6569915 L758.411382,67.5440151 L765.329037,53.7665 L762.667407,54.2880855 L768.768358,34.4158942 L777.766163,53.7665 L775.281481,54.2880855 L781.875176,68.7737004 L779.418297,68.6449408 L785.424678,81.5172777 L772.336565,80.8313588 L771.875,89.624 L886.780389,94.5406729 L982.177,88.908 L982.177939,86.0826919 L994.114745,83.7518988 L1009.44302,86.5036702 L1009.605,87.288 L1020.718,86.632 L1020.61673,85.6085059 L1023.95789,73.1780198 L1017.383,71.1948739 L1013.67794,64.2389664 L1013.67794,48.1645796 L1025.61475,40.0753566 L1040.94302,49.625622 L1041.93625,66.3722083 L1032.13244,73.1780198 L1027.56133,73.1780198 L1026.21675,83.6447773 L1026.627,86.284 L1128.65617,80.2600541 L1198.812,83.427 L1199.18945,76.2408086 L1186.42915,76.2993116 L1192.5671,63.3361905 L1190.41138,63.223214 L1197.32904,49.445699 L1194.66741,49.9672845 L1200.76836,30.0950932 L1209.76616,49.445699 L1207.28148,49.9672845 L1213.87518,64.4528994 L1211.4183,64.3241398 L1217.42468,77.1964767 L1204.33657,76.5105577 L1203.961,83.66 L1227.342,84.715 L1227.34973,82.7680667 L1227.76585,76.076111 L1223.9878,76.076111 L1219.84077,72.1541179 L1220.26091,62.5035427 L1228.58926,57 L1237.34077,60.380125 L1237.34077,73.063279 L1232.33597,77.7803439 L1229.29011,76.076111 L1229.71855,83.8997069 L1229.772,84.824 L1328.753,89.292 L1328.75353,76.7644909 L1311.49323,77.9965134 L1318.87859,55.4906895 L1315.95393,55.4906895 L1324.33647,31.5359721 L1320.9881,31.5359721 L1329.34743,4.54747351e-13 Z M1342.261,76.764 L1335.73661,76.7644909 L1335.736,89.607 L1357.727,90.6 L1357.7278,80.4115927 L1340.34875,81.3972107 L1342.261,76.764 Z M767.189446,80.5616097 L758.174,80.603 L758.11553,82.2866212 L754.907463,84.4929166 L753.0335,83.589887 L753.167096,87.4396608 L753.222,88.826 L766.725,89.404 L767.189446,80.5616097 Z"/>
</svg>
