<svg xmlns="http://www.w3.org/2000/svg" width="150" height="32" viewBox="0 0 150 32">
  <g fill-rule="evenodd" transform="translate(.984 .837)">
    <text fill-opacity=".388" font-family="FredokaOne-Regular, Fredoka One" font-size="18" letter-spacing="1.227">
      <tspan x="47.13" y="23.163">CAPTREE</tspan>
    </text>
    <path fill-opacity=".39" d="M10.4219701,-1.24344979e-14 L15.0441641,3.22836023 L16.7186114,2.74186848 L20.6230359,6.02844709 L20.8611267,10.8017529 L18.0677619,11.8752505 L21.2766726,13.3551647 L24,18.1981899 L20.1588453,20.9674821 L15.8623569,19.3994988 L15.3545632,18.6276797 L13.4751816,19.3994988 L12.5074668,23.2230761 L13.084662,29.606748 L12.9563964,30.1020904 L11.8159585,30.3261291 L11.1062464,29.606748 L10.9815424,23.531295 L8.22941883,22.3307582 L7.78775644,21.2516285 L5.04553444,21.6789382 L3.16974105,18.7823797 L5.55428192,16.5043937 L0,13.237709 L2.43489368,4.68760841 L10.4219701,-1.24344979e-14 Z M12.4882088,13.2558315 L8.14584635,15.3857488 L10.2719938,15.0507456 L12.3178391,18.0814609 L8.37067449,21.2356862 L8.69674342,21.8822828 L11.1646297,22.7513003 L13.456832,15.6451869 L12.4882088,13.2558315 Z M14.2182135,16.5171942 L13.7335235,18.4053666 L15.0189091,17.9368075 L14.2182135,16.5171942 Z M13.5995726,12.679625 L13.2803997,12.9259475 L13.6614628,13.6769279 L14.3762163,13.1205039 L13.5995726,12.679625 Z"/>
  </g>
</svg>
