<svg xmlns="http://www.w3.org/2000/svg" width="33" height="41" viewBox="0 0 33 41">
  <path fill-opacity=".182" fill-rule="evenodd" d="M38.5143347,23 L44.7115632,27.3284393 L46.9565864,26.6761731 L52.191462,31.0826689 L52.5106833,37.4825012 L48.7654663,38.9217982 L53.0678285,40.9060002 L56.7191425,47.3993091 L51.5690962,51.1122508 L45.808559,49.0099698 L45.1277323,47.9751497 L42.6079425,49.0099698 L41.3104743,54.1364491 L42.0843515,62.6953874 L41.9123788,63.3595201 L40.3833312,63.659901 L39.4317814,62.6953874 L39.2645839,54.5496951 L35.5746613,52.9400696 L34.9825003,51.4932214 L31.3058532,52.066139 L28.7908743,48.1825644 L31.9879588,45.1283439 L24.541029,40.7485209 L27.8056243,29.2849331 L38.5143347,23 Z M41.2846541,40.7728188 L35.4626111,43.6285155 L38.3132533,43.1793583 L41.05623,47.2428042 L35.7640504,51.4718466 L36.2012289,52.3387741 L39.5100591,53.5039135 L42.5833402,43.9763583 L41.2846541,40.7728188 Z M43.604166,45.1455063 L42.9543157,47.6770823 L44.6777024,47.0488594 L43.604166,45.1455063 Z M42.7747203,40.0002671 L42.3467878,40.3305253 L42.8576999,41.3374057 L43.816009,40.5913777 L42.7747203,40.0002671 Z" transform="translate(-24 -23)"/>
</svg>
