<svg xmlns="http://www.w3.org/2000/svg" width="28" height="28" viewBox="0 0 28 28">
  <g fill="#838753" fill-rule="evenodd" transform="translate(.5)">
    <path d="M1.94530767,22.7368195 L21.9624103,2.48687735 C22.7789777,1.66081161 24.110595,1.65311169 24.9366607,2.46967909 C24.9424266,2.47537865 24.9481594,2.4811115 24.953859,2.48687735 C25.782708,3.32536759 25.782708,4.67463241 24.953859,5.51312265 L4.93675635,25.7630648 C4.12018894,26.5891306 2.78857167,26.5968305 1.96250593,25.7802631 C1.95674008,25.7745635 1.95100723,25.7688307 1.94530767,25.7630648 C1.11645863,24.9245746 1.11645863,23.5753098 1.94530767,22.7368195 Z"/>
    <path d="M4.93675635,2.48687735 L24.953859,22.7368195 C25.782708,23.5753098 25.782708,24.9245746 24.953859,25.7630648 C24.1372916,26.5891306 22.8056743,26.5968305 21.9796086,25.7802631 C21.9738427,25.7745635 21.9681099,25.7688307 21.9624103,25.7630648 L1.94530767,5.51312265 C1.11645863,4.67463241 1.11645863,3.32536759 1.94530767,2.48687735 C2.76187508,1.66081161 4.09349235,1.65311169 4.91955809,2.46967909 C4.92532395,2.47537865 4.93105679,2.4811115 4.93675635,2.48687735 Z"/>
  </g>
</svg>
