<?xml version="1.0" encoding="UTF-8" standalone="no"?>
<!DOCTYPE svg PUBLIC "-//W3C//DTD SVG 1.1//EN" "http://www.w3.org/Graphics/SVG/1.1/DTD/svg11.dtd">
<svg width="100%" height="100%" viewBox="0 0 2132 698" version="1.1" xmlns="http://www.w3.org/2000/svg" xmlns:xlink="http://www.w3.org/1999/xlink" xml:space="preserve" xmlns:serif="http://www.serif.com/" style="fill-rule:evenodd;clip-rule:evenodd;stroke-linejoin:round;stroke-miterlimit:2;">
    <g transform="matrix(1,0,0,1,0,-839.971)">
        <g transform="matrix(4.16667,0,0,4.16667,0,0)">
            <path d="M511.48,346.292C511.48,358.778 501.359,368.904 488.875,368.904L22.61,368.904C10.124,368.904 0,358.778 0,346.292L0,224.203C0,211.718 10.124,201.593 22.61,201.593L488.875,201.593C501.359,201.593 511.48,211.718 511.48,224.203L511.48,346.292Z" style="fill:rgb(35,31,32);fill-rule:nonzero;"/>
        </g>
        <g transform="matrix(4.16667,0,0,4.16667,0,0)">
            <clipPath id="_clip1">
                <path d="M110.844,275.239L87.781,261.924C87.781,261.924 45.765,237.663 43.295,236.237C40.825,234.811 38.364,235.675 38.364,238.655L38.364,343.306C38.364,345.54 40.124,346.503 42.269,345.265C44.414,344.024 87.781,318.985 87.781,318.985L110.843,305.671C110.843,305.671 130.41,294.374 133.012,292.873C135.613,291.37 135.363,289.31 133.168,288.128C130.974,286.945 110.844,275.239 110.844,275.239Z"/>
            </clipPath>
            <g clip-path="url(#_clip1)">
                <clipPath id="_clip2">
                    <path d="M38.364,233.804L38.364,347.106L95.498,290.456L38.364,233.804Z"/>
                </clipPath>
                <g clip-path="url(#_clip2)">
                    <rect x="38.364" y="235.566" width="57.134" height="110.244" style="fill:url(#_Linear3);fill-rule:nonzero;"/>
                </g>
            </g>
        </g>
        <g transform="matrix(4.16667,0,0,4.16667,0,0)">
            <clipPath id="_clip4">
                <path d="M110.844,275.239L87.781,261.924C87.781,261.924 45.765,237.663 43.295,236.237C40.825,234.811 38.364,235.675 38.364,238.655L38.364,343.306C38.364,345.54 40.124,346.503 42.269,345.265C44.414,344.024 87.781,318.985 87.781,318.985L110.843,305.671C110.843,305.671 130.41,294.374 133.012,292.873C135.613,291.37 135.363,289.31 133.168,288.128C130.974,286.945 110.844,275.239 110.844,275.239Z"/>
            </clipPath>
            <g clip-path="url(#_clip4)">
                <clipPath id="_clip5">
                    <path d="M110.844,275.239L87.781,261.924L38.364,233.392L38.364,233.804L95.498,290.456L110.844,275.239Z"/>
                </clipPath>
                <g clip-path="url(#_clip5)">
                    <rect x="38.364" y="235.566" width="72.48" height="54.89" style="fill:url(#_Linear6);fill-rule:nonzero;"/>
                </g>
            </g>
        </g>
        <g transform="matrix(4.16667,0,0,4.16667,0,0)">
            <clipPath id="_clip7">
                <path d="M110.844,275.239L87.781,261.924C87.781,261.924 45.765,237.663 43.295,236.237C40.825,234.811 38.364,235.675 38.364,238.655L38.364,343.306C38.364,345.54 40.124,346.503 42.269,345.265C44.414,344.024 87.781,318.985 87.781,318.985L110.843,305.671C110.843,305.671 130.41,294.374 133.012,292.873C135.613,291.37 135.363,289.31 133.168,288.128C130.974,286.945 110.844,275.239 110.844,275.239Z"/>
            </clipPath>
            <g clip-path="url(#_clip7)">
                <clipPath id="_clip8">
                    <path d="M38.364,347.106L38.364,347.519L87.781,318.985L110.843,305.671L95.498,290.456L38.364,347.106Z"/>
                </clipPath>
                <g clip-path="url(#_clip8)">
                    <rect x="38.364" y="290.456" width="72.479" height="55.354" style="fill:url(#_Linear9);fill-rule:nonzero;"/>
                </g>
            </g>
        </g>
        <g transform="matrix(4.16667,0,0,4.16667,0,0)">
            <clipPath id="_clip10">
                <path d="M110.844,275.239L87.781,261.924C87.781,261.924 45.765,237.663 43.295,236.237C40.825,234.811 38.364,235.675 38.364,238.655L38.364,343.306C38.364,345.54 40.124,346.503 42.269,345.265C44.414,344.024 87.781,318.985 87.781,318.985L110.843,305.671C110.843,305.671 130.41,294.374 133.012,292.873C135.613,291.37 135.363,289.31 133.168,288.128C130.974,286.945 110.844,275.239 110.844,275.239Z"/>
            </clipPath>
            <g clip-path="url(#_clip10)">
                <clipPath id="_clip11">
                    <path d="M110.844,275.239L95.498,290.456L110.843,305.671L137.2,290.455L110.844,275.239Z"/>
                </clipPath>
                <g clip-path="url(#_clip11)">
                    <rect x="95.498" y="275.239" width="39.391" height="30.432" style="fill:url(#_Linear12);fill-rule:nonzero;"/>
                </g>
            </g>
        </g>
        <g transform="matrix(4.16667,0,0,4.16667,0,0)">
            <path d="M397.336,282.689C393.969,282.689 391.535,283.622 390.032,285.485C388.529,287.35 387.756,290.316 387.715,294.386L387.715,295.497C387.715,300.128 388.488,303.44 390.032,305.435C391.576,307.429 394.051,308.425 397.457,308.425C400.304,308.425 402.535,307.273 404.149,304.969C405.761,302.665 406.568,299.487 406.568,295.436C406.568,291.329 405.761,288.176 404.149,285.981C402.535,283.786 400.263,282.689 397.336,282.689ZM398.058,312.603C395.913,312.603 393.954,312.208 392.181,311.417C390.408,310.625 388.918,309.407 387.715,307.765L387.355,307.765C387.595,309.688 387.715,311.513 387.715,313.235L387.715,326.794L382.727,326.794L382.727,279.052L386.785,279.052L387.475,283.561L387.715,283.561C389,281.757 390.494,280.455 392.197,279.653C393.9,278.852 395.855,278.45 398.058,278.45C402.428,278.45 405.801,279.944 408.175,282.931C410.55,285.917 411.739,290.106 411.739,295.497C411.739,300.909 410.531,305.112 408.118,308.111C405.701,311.106 402.349,312.603 398.058,312.603Z" style="fill:rgb(249,249,249);fill-rule:nonzero;"/>
        </g>
        <g transform="matrix(4.16667,0,0,4.16667,0,0)">
            <rect x="418.303" y="265.222" width="4.99" height="46.78" style="fill:rgb(249,249,249);fill-rule:nonzero;"/>
        </g>
        <g transform="matrix(4.16667,0,0,4.16667,0,0)">
            <path d="M440.712,308.485C443.818,308.485 446.257,307.634 448.033,305.931C449.805,304.228 450.694,301.842 450.694,298.773L450.694,295.798L445.701,296.007C441.733,296.149 438.874,296.764 437.118,297.858C435.365,298.95 434.488,300.649 434.488,302.954C434.488,304.757 435.033,306.131 436.126,307.071C437.219,308.015 438.746,308.485 440.712,308.485ZM451.986,312.002L450.993,307.311L450.752,307.311C449.109,309.378 447.47,310.776 445.836,311.506C444.204,312.239 442.164,312.603 439.719,312.603C436.453,312.603 433.892,311.762 432.038,310.078C430.183,308.394 429.256,306.001 429.256,302.894C429.256,296.24 434.579,292.753 445.22,292.431L450.814,292.25L450.814,290.206C450.814,287.62 450.257,285.71 449.144,284.479C448.033,283.245 446.251,282.63 443.808,282.63C441.061,282.63 437.954,283.472 434.488,285.155L432.954,281.337C434.579,280.455 436.356,279.764 438.292,279.263C440.225,278.762 442.164,278.511 444.109,278.511C448.037,278.511 450.948,279.382 452.843,281.126C454.736,282.87 455.683,285.666 455.683,289.515L455.683,312.002L451.986,312.002Z" style="fill:rgb(249,249,249);fill-rule:nonzero;"/>
        </g>
        <g transform="matrix(4.16667,0,0,4.16667,0,0)">
            <path d="M458.581,279.052L463.93,279.052L471.146,297.843C472.729,302.133 473.712,305.228 474.094,307.134L474.334,307.134C474.595,306.109 475.142,304.362 475.972,301.885C476.804,299.409 479.526,291.8 484.134,279.052L489.488,279.052L475.326,316.572C473.923,320.28 472.285,322.911 470.409,324.467C468.536,326.019 466.235,326.794 463.511,326.794C461.987,326.794 460.484,326.624 459,326.284L459,322.286C460.101,322.526 461.335,322.647 462.699,322.647C466.126,322.647 468.57,320.724 470.035,316.874L471.868,312.185L458.581,279.052Z" style="fill:rgb(249,249,249);fill-rule:nonzero;"/>
        </g>
        <g transform="matrix(4.16667,0,0,4.16667,0,0)">
            <path d="M302.714,299.619C304.297,298.032 304.433,295.829 304.433,294.587C304.433,289.626 301.471,281.907 295.752,281.907C293.958,281.907 292.031,282.802 290.927,284.183C289.757,285.63 289.41,287.488 289.41,289.282C289.41,293.899 292.098,301.55 298.028,301.55C299.75,301.55 301.607,300.723 302.714,299.619ZM300.714,312.716C300.164,312.644 299.817,312.644 299.131,312.644C298.511,312.644 294.785,312.784 291.893,313.752C290.377,314.299 285.965,315.953 285.965,320.849C285.965,325.739 290.723,329.26 298.098,329.26C304.71,329.26 308.229,326.083 308.229,321.813C308.229,318.292 305.954,316.438 300.714,312.716ZM305.609,282.113C307.193,283.424 310.5,286.179 310.5,291.419C310.5,296.516 307.606,298.933 304.71,301.204C303.814,302.099 302.781,303.067 302.781,304.585C302.781,306.098 303.814,306.926 304.575,307.547L307.057,309.473C310.089,312.023 312.843,314.368 312.843,319.126C312.843,325.603 306.571,332.149 294.719,332.149C284.724,332.149 279.902,327.395 279.902,322.292C279.902,319.811 281.137,316.299 285.208,313.884C289.478,311.265 295.272,310.924 298.372,310.712C297.404,309.473 296.303,308.163 296.303,306.03C296.303,304.86 296.649,304.17 296.993,303.339C296.232,303.409 295.475,303.478 294.785,303.478C287.482,303.478 283.346,298.032 283.346,292.659C283.346,289.488 284.795,285.972 287.755,283.424C291.685,280.185 296.372,279.632 300.096,279.632L314.291,279.632L309.879,282.113L305.609,282.113Z" style="fill:rgb(249,249,249);fill-rule:nonzero;"/>
        </g>
        <g transform="matrix(4.16667,0,0,4.16667,0,0)">
            <path d="M270.82,306.04C272.474,303.836 272.887,301.085 272.887,298.399C272.887,292.343 269.998,280.784 261.463,280.784C259.195,280.784 256.924,281.681 255.273,283.128C252.589,285.533 252.105,288.561 252.105,291.524C252.105,298.331 255.477,309.544 263.805,309.544C266.488,309.544 269.241,308.239 270.82,306.04ZM262.22,311.612C251.281,311.612 245.432,303.079 245.432,295.371C245.432,286.356 252.793,278.653 263.256,278.653C273.367,278.653 279.698,286.563 279.698,294.892C279.698,303.008 273.439,311.612 262.22,311.612Z" style="fill:rgb(249,249,249);fill-rule:nonzero;"/>
        </g>
        <g transform="matrix(4.16667,0,0,4.16667,0,0)">
            <path d="M233.527,306.04C235.178,303.836 235.592,301.085 235.592,298.399C235.592,292.343 232.701,280.784 224.167,280.784C221.899,280.784 219.626,281.681 217.976,283.128C215.292,285.533 214.811,288.561 214.811,291.524C214.811,298.331 218.181,309.544 226.51,309.544C229.194,309.544 231.945,308.239 233.527,306.04ZM224.925,311.612C213.984,311.612 208.135,303.079 208.135,295.371C208.135,286.356 215.499,278.653 225.958,278.653C236.072,278.653 242.402,286.563 242.402,294.892C242.402,303.008 236.142,311.612 224.925,311.612Z" style="fill:rgb(249,249,249);fill-rule:nonzero;"/>
        </g>
        <g transform="matrix(4.16667,0,0,4.16667,0,0)">
            <path d="M202.878,310.534L192.985,312.817C188.971,313.441 185.375,313.99 181.572,313.99C162.476,313.99 155.215,299.946 155.215,288.946C155.215,275.527 165.521,263.078 183.164,263.078C186.901,263.078 190.495,263.63 193.746,264.53C198.935,265.983 201.355,267.78 202.878,268.819L197.135,274.284L194.715,274.835L196.444,272.067C194.093,269.786 189.801,265.567 181.641,265.567C170.709,265.567 162.476,273.872 162.476,285.978C162.476,298.979 171.886,311.225 186.964,311.225C191.396,311.225 193.674,310.326 195.751,309.494L195.751,298.358L185.307,298.911L190.838,295.934L205.505,295.934L203.708,297.662C203.221,298.079 203.154,298.219 203.015,298.768C202.943,299.392 202.878,301.399 202.878,302.091L202.878,310.534Z" style="fill:rgb(249,249,249);fill-rule:nonzero;"/>
        </g>
        <g transform="matrix(4.16667,0,0,4.16667,0,0)">
            <path d="M327.474,308.542C325.19,308.334 324.712,307.921 324.712,305.22L324.712,266.065C324.726,265.916 324.736,265.764 324.75,265.619C325.029,263.199 325.719,262.784 327.867,261.537L317.97,261.537L312.78,264.028L318.069,264.028L318.069,264.06L318.065,264.034L318.065,306.743C318.065,308.124 317.792,308.334 316.199,310.407L328.445,310.407L331.004,308.89C329.83,308.747 328.652,308.68 327.474,308.542Z" style="fill:rgb(249,249,249);fill-rule:nonzero;"/>
        </g>
        <g transform="matrix(4.16667,0,0,4.16667,0,0)">
            <path d="M349.168,288.702C350.471,288.223 351.159,287.81 351.159,286.849C351.159,284.103 348.069,280.94 344.356,280.94C341.605,280.94 336.456,283.071 336.456,290.489C336.456,291.657 336.593,292.894 336.665,294.134L349.168,288.702ZM355.624,309.178C354.871,309.591 354.115,310.074 353.362,310.415C351.09,311.445 348.755,311.721 346.691,311.721C344.498,311.721 341.06,311.579 337.553,309.04C332.679,305.603 330.549,299.694 330.549,294.543C330.549,283.895 339.206,278.675 346.282,278.675C348.755,278.675 351.3,279.292 353.362,280.6C356.793,282.862 357.687,285.816 358.165,287.397L342.024,293.927L336.733,294.339C338.448,303.063 344.356,308.144 350.885,308.144C354.388,308.144 356.931,306.909 359.266,305.743L355.624,309.178Z" style="fill:rgb(249,249,249);fill-rule:nonzero;"/>
        </g>
        <g transform="matrix(4.16667,0,0,4.16667,0,0)">
            <path d="M362.255,279.144L362.255,283.678L361.705,283.678L361.705,279.144L360.205,279.144L360.205,278.675L363.754,278.675L363.754,279.144L362.255,279.144Z" style="fill:rgb(249,249,249);fill-rule:nonzero;"/>
        </g>
        <g transform="matrix(4.16667,0,0,4.16667,0,0)">
            <path d="M368.435,283.678L368.435,279.103L368.41,279.103L367.013,283.678L366.583,283.678L365.174,279.103L365.157,279.103L365.157,283.678L364.657,283.678L364.657,278.675L365.514,278.675L366.789,282.719L366.806,282.719L368.061,278.675L368.93,278.675L368.93,283.678L368.435,283.678Z" style="fill:rgb(249,249,249);fill-rule:nonzero;"/>
        </g>
        <g transform="matrix(4.16667,0,0,4.16667,0,0)">
            <path d="M163.991,243.538C162.767,239.843 162.154,237.845 162.154,237.544L161.982,237.544C161.982,237.823 161.349,239.821 160.081,243.538L163.991,243.538ZM168.954,249.607L165.517,249.607C165.517,249.135 165.19,247.796 164.539,245.59L159.576,245.59C158.903,247.76 158.566,249.099 158.566,249.607L155.333,249.607C155.333,249.328 156.169,247.036 157.841,242.732C159.513,238.429 160.35,236.058 160.35,235.621L164.41,235.621C164.41,236.029 165.167,238.365 166.682,242.63C168.197,246.894 168.954,249.221 168.954,249.607Z" style="fill:rgb(250,251,252);fill-rule:nonzero;"/>
        </g>
        <g transform="matrix(4.16667,0,0,4.16667,0,0)">
            <path d="M182.806,249.607L180.152,249.607C180.152,249.313 179.167,247.764 177.198,244.956C175.136,241.998 173.961,239.976 173.675,238.887L173.503,238.887C173.682,240.455 173.771,241.873 173.771,243.141C173.771,244.909 173.821,247.065 173.922,249.607L171.279,249.607C171.387,247.388 171.44,244.949 171.44,242.292C171.44,239.678 171.387,237.454 171.279,235.621L174.47,235.621C174.47,236.001 175.354,237.516 177.123,240.165C179.006,242.979 180.088,244.888 180.367,245.891L180.528,245.891C180.356,244.294 180.271,242.861 180.271,241.594C180.271,239.653 180.22,237.662 180.12,235.621L182.806,235.621C182.705,237.397 182.655,239.621 182.655,242.292C182.655,244.984 182.705,247.423 182.806,249.607Z" style="fill:rgb(250,251,252);fill-rule:nonzero;"/>
        </g>
        <g transform="matrix(4.16667,0,0,4.16667,0,0)">
            <path d="M195.443,242.593C195.443,241.218 195.042,240.06 194.24,239.117C193.438,238.176 192.213,237.705 190.566,237.705C190.258,237.705 189.835,237.737 189.298,237.802C189.37,239.234 189.406,240.73 189.406,242.292C189.406,244.004 189.441,245.701 189.513,247.384C189.979,247.477 190.444,247.523 190.91,247.523C192.449,247.523 193.59,247.045 194.331,246.089C195.072,245.133 195.443,243.968 195.443,242.593ZM198.375,242.131C198.375,244.165 197.724,245.94 196.42,247.459C195.117,248.978 193.291,249.736 190.942,249.736C189.882,249.736 188.421,249.693 186.559,249.607C186.652,247.444 186.699,245.006 186.699,242.292C186.699,239.686 186.652,237.462 186.559,235.621L188.439,235.621C188.747,235.621 189.205,235.61 189.814,235.589C190.422,235.567 190.82,235.557 191.006,235.557C193.591,235.557 195.466,236.201 196.63,237.49C197.793,238.779 198.375,240.326 198.375,242.131Z" style="fill:rgb(250,251,252);fill-rule:nonzero;"/>
        </g>
        <g transform="matrix(4.16667,0,0,4.16667,0,0)">
            <path d="M208.704,239.725C208.704,238.3 207.787,237.587 205.954,237.587C205.28,237.587 204.686,237.637 204.17,237.737C204.249,238.848 204.289,240.294 204.289,242.077C204.682,242.092 205.015,242.099 205.288,242.099C207.565,242.099 208.704,241.308 208.704,239.725ZM212.732,249.607L209.552,249.607C208.721,247.072 208.084,245.508 207.64,244.913C207.196,244.318 206.48,244.021 205.492,244.021C205.076,244.021 204.679,244.025 204.299,244.032C204.299,245.873 204.332,247.731 204.396,249.607L201.41,249.607C201.502,247.444 201.549,245.006 201.549,242.292C201.549,239.686 201.502,237.462 201.41,235.621L203.268,235.621C203.483,235.621 203.932,235.61 204.616,235.589C205.3,235.567 205.932,235.557 206.512,235.557C209.799,235.557 211.443,236.681 211.443,238.93C211.443,240.713 210.504,241.955 208.628,242.657L208.628,242.818C209.352,243.019 209.985,243.583 210.53,244.51C211.074,245.437 211.808,247.137 212.732,249.607Z" style="fill:rgb(250,251,252);fill-rule:nonzero;"/>
        </g>
        <g transform="matrix(4.16667,0,0,4.16667,0,0)">
            <path d="M225.166,242.668C225.166,241.171 224.782,239.957 224.016,239.026C223.25,238.096 222.304,237.63 221.18,237.63C220.134,237.63 219.247,238.099 218.516,239.037C217.786,239.976 217.42,241.16 217.42,242.593C217.42,244.082 217.805,245.294 218.575,246.228C219.345,247.163 220.289,247.631 221.406,247.631C222.451,247.631 223.339,247.16 224.07,246.218C224.8,245.276 225.166,244.093 225.166,242.668ZM228.13,242.356C228.13,244.555 227.457,246.378 226.111,247.824C224.764,249.27 223.099,249.994 221.116,249.994C219.225,249.994 217.642,249.33 216.368,248.001C215.093,246.673 214.456,244.984 214.456,242.936C214.456,240.738 215.128,238.915 216.475,237.469C217.821,236.022 219.486,235.299 221.47,235.299C223.361,235.299 224.943,235.961 226.218,237.286C227.493,238.611 228.13,240.301 228.13,242.356Z" style="fill:rgb(250,251,252);fill-rule:nonzero;"/>
        </g>
        <g transform="matrix(4.16667,0,0,4.16667,0,0)">
            <path d="M234.204,249.607L231.164,249.607C231.257,247.388 231.304,244.949 231.304,242.292C231.304,239.678 231.257,237.454 231.164,235.621L234.204,235.621C234.111,237.426 234.064,239.649 234.064,242.292C234.064,244.992 234.111,247.431 234.204,249.607Z" style="fill:rgb(250,251,252);fill-rule:nonzero;"/>
        </g>
        <g transform="matrix(4.16667,0,0,4.16667,0,0)">
            <path d="M246.842,242.593C246.842,241.218 246.44,240.06 245.639,239.117C244.836,238.176 243.612,237.705 241.965,237.705C241.657,237.705 241.234,237.737 240.697,237.802C240.769,239.234 240.805,240.73 240.805,242.292C240.805,244.004 240.84,245.701 240.912,247.384C241.377,247.477 241.843,247.523 242.309,247.523C243.848,247.523 244.989,247.045 245.73,246.089C246.471,245.133 246.842,243.968 246.842,242.593ZM249.774,242.131C249.774,244.165 249.123,245.94 247.819,247.459C246.516,248.978 244.689,249.736 242.341,249.736C241.281,249.736 239.82,249.693 237.958,249.607C238.051,247.444 238.098,245.006 238.098,242.292C238.098,239.686 238.051,237.462 237.958,235.621L239.838,235.621C240.146,235.621 240.604,235.61 241.213,235.589C241.821,235.567 242.219,235.557 242.405,235.557C244.99,235.557 246.865,236.201 248.029,237.49C249.192,238.779 249.774,240.326 249.774,242.131Z" style="fill:rgb(250,251,252);fill-rule:nonzero;"/>
        </g>
        <g transform="matrix(4.16667,0,0,4.16667,0,0)">
            <path d="M265.467,243.538C264.243,239.843 263.629,237.845 263.629,237.544L263.458,237.544C263.458,237.823 262.825,239.821 261.557,243.538L265.467,243.538ZM270.43,249.607L266.993,249.607C266.993,249.135 266.667,247.796 266.014,245.59L261.051,245.59C260.377,247.76 260.042,249.099 260.042,249.607L256.808,249.607C256.808,249.328 257.644,247.036 259.316,242.732C260.989,238.429 261.825,236.058 261.825,235.621L265.885,235.621C265.885,236.029 266.643,238.365 268.158,242.63C269.672,246.894 270.43,249.221 270.43,249.607Z" style="fill:rgb(250,251,252);fill-rule:nonzero;"/>
        </g>
        <g transform="matrix(4.16667,0,0,4.16667,0,0)">
            <path d="M280.189,239.875C280.189,238.343 279.172,237.576 277.138,237.576C276.629,237.576 276.092,237.63 275.527,237.737C275.606,239.091 275.645,240.623 275.645,242.335C275.824,242.35 276.032,242.356 276.268,242.356C278.882,242.356 280.189,241.529 280.189,239.875ZM282.96,239.284C282.96,240.996 282.325,242.26 281.053,243.076C279.783,243.893 278.223,244.301 276.375,244.301C276.039,244.301 275.799,244.294 275.656,244.279C275.656,245.626 275.695,247.401 275.774,249.607L272.755,249.607C272.848,247.538 272.895,245.1 272.895,242.292C272.895,239.714 272.848,237.49 272.755,235.621L274.625,235.621C274.889,235.621 275.398,235.61 276.15,235.589C276.902,235.567 277.553,235.557 278.105,235.557C279.465,235.557 280.615,235.864 281.553,236.48C282.492,237.097 282.96,238.031 282.96,239.284Z" style="fill:rgb(250,251,252);fill-rule:nonzero;"/>
        </g>
        <g transform="matrix(4.16667,0,0,4.16667,0,0)">
            <path d="M293.073,239.875C293.073,238.343 292.056,237.576 290.022,237.576C289.513,237.576 288.976,237.63 288.411,237.737C288.49,239.091 288.529,240.623 288.529,242.335C288.708,242.35 288.916,242.356 289.152,242.356C291.766,242.356 293.073,241.529 293.073,239.875ZM295.844,239.284C295.844,240.996 295.208,242.26 293.938,243.076C292.667,243.893 291.107,244.301 289.259,244.301C288.922,244.301 288.683,244.294 288.54,244.279C288.54,245.626 288.579,247.401 288.658,249.607L285.639,249.607C285.732,247.538 285.779,245.1 285.779,242.292C285.779,239.714 285.732,237.49 285.639,235.621L287.508,235.621C287.773,235.621 288.282,235.61 289.034,235.589C289.786,235.567 290.437,235.557 290.989,235.557C292.349,235.557 293.499,235.864 294.437,236.48C295.375,237.097 295.844,238.031 295.844,239.284Z" style="fill:rgb(250,251,252);fill-rule:nonzero;"/>
        </g>
        <g transform="matrix(4.16667,0,0,4.16667,0,0)">
            <path d="M313.944,242.668C313.944,241.171 313.561,239.957 312.794,239.026C312.028,238.096 311.083,237.63 309.958,237.63C308.913,237.63 308.025,238.099 307.294,239.037C306.564,239.976 306.199,241.16 306.199,242.593C306.199,244.082 306.583,245.294 307.354,246.228C308.124,247.163 309.067,247.631 310.184,247.631C311.23,247.631 312.118,247.16 312.848,246.218C313.579,245.276 313.944,244.093 313.944,242.668ZM316.909,242.356C316.909,244.555 316.236,246.378 314.889,247.824C313.542,249.27 311.877,249.994 309.894,249.994C308.003,249.994 306.42,249.33 305.146,248.001C303.872,246.673 303.234,244.984 303.234,242.936C303.234,240.738 303.907,238.915 305.253,237.469C306.6,236.022 308.265,235.299 310.249,235.299C312.139,235.299 313.722,235.961 314.997,237.286C316.271,238.611 316.909,240.301 316.909,242.356Z" style="fill:rgb(250,251,252);fill-rule:nonzero;"/>
        </g>
        <g transform="matrix(4.16667,0,0,4.16667,0,0)">
            <path d="M331.469,249.607L328.816,249.607C328.816,249.313 327.832,247.764 325.862,244.956C323.799,241.998 322.625,239.976 322.338,238.887L322.167,238.887C322.345,240.455 322.435,241.873 322.435,243.141C322.435,244.909 322.485,247.065 322.585,249.607L319.943,249.607C320.05,247.388 320.104,244.949 320.104,242.292C320.104,239.678 320.05,237.454 319.943,235.621L323.133,235.621C323.133,236.001 324.018,237.516 325.787,240.165C327.67,242.979 328.751,244.888 329.031,245.891L329.192,245.891C329.02,244.294 328.934,242.861 328.934,241.594C328.934,239.653 328.884,237.662 328.784,235.621L331.469,235.621C331.369,237.397 331.319,239.621 331.319,242.292C331.319,244.984 331.369,247.423 331.469,249.607Z" style="fill:rgb(250,251,252);fill-rule:nonzero;"/>
        </g>
    </g>
    <defs>
        <linearGradient id="_Linear3" x1="0" y1="0" x2="1" y2="0" gradientUnits="userSpaceOnUse" gradientTransform="matrix(-4.95262e-06,113.303,-113.303,-4.95262e-06,66.9316,233.804)"><stop offset="0" style="stop-color:rgb(33,125,178);stop-opacity:1"/><stop offset="1" style="stop-color:rgb(138,207,190);stop-opacity:1"/></linearGradient>
        <linearGradient id="_Linear6" x1="0" y1="0" x2="1" y2="0" gradientUnits="userSpaceOnUse" gradientTransform="matrix(72.4795,0,0,72.4795,38.3647,261.924)"><stop offset="0" style="stop-color:rgb(82,193,173);stop-opacity:1"/><stop offset="1" style="stop-color:rgb(222,232,154);stop-opacity:1"/></linearGradient>
        <linearGradient id="_Linear9" x1="0" y1="0" x2="1" y2="0" gradientUnits="userSpaceOnUse" gradientTransform="matrix(-2.49428e-06,57.0625,-57.0625,-2.49428e-06,74.604,290.456)"><stop offset="0" style="stop-color:rgb(237,64,61);stop-opacity:1"/><stop offset="1" style="stop-color:rgb(138,74,157);stop-opacity:1"/></linearGradient>
        <linearGradient id="_Linear12" x1="0" y1="0" x2="1" y2="0" gradientUnits="userSpaceOnUse" gradientTransform="matrix(-1.33021e-06,30.4316,-30.4316,-1.33021e-06,116.35,275.239)"><stop offset="0" style="stop-color:rgb(245,136,121);stop-opacity:1"/><stop offset="1" style="stop-color:rgb(254,199,117);stop-opacity:1"/></linearGradient>
    </defs>
</svg>
